<?xml version="1.0" standalone="no"?>
<!DOCTYPE svg PUBLIC "-//W3C//DTD SVG 20010904//EN"
 "http://www.w3.org/TR/2001/REC-SVG-20010904/DTD/svg10.dtd">
<svg version="1.0" xmlns="http://www.w3.org/2000/svg"
 width="821.000000pt" height="304.000000pt" viewBox="0 0 821.000000 304.000000"
 preserveAspectRatio="xMidYMid meet">

<g transform="translate(0.000000,304.000000) scale(0.100000,-0.100000)"
fill="#000000" stroke="none">
<path d="M799 2627 c-168 -106 -329 -206 -357 -224 l-52 -32 0 -181 c0 -99 2
-180 4 -180 2 0 102 61 222 136 121 75 250 156 289 180 38 23 73 40 77 38 4
-3 8 -85 8 -183 l0 -177 -295 -185 -295 -184 0 -70 c0 -38 -3 -79 -6 -91 -5
-18 6 -28 61 -63 37 -24 73 -40 82 -37 8 3 109 65 225 137 115 72 211 129 213
127 1 -2 5 -86 8 -187 l5 -183 -79 -51 c-44 -27 -78 -51 -77 -52 5 -4 551
-347 578 -363 25 -14 38 -7 525 308 275 177 506 328 514 335 12 12 13 40 4
180 -6 91 -13 168 -15 171 -3 2 -134 -77 -292 -176 -158 -99 -291 -180 -297
-180 -5 0 -9 75 -9 183 0 163 2 186 18 199 18 16 522 337 560 357 20 11 22 19
22 99 l0 88 -75 37 c-42 20 -80 37 -85 37 -5 0 -103 -59 -217 -130 -150 -94
-209 -127 -215 -118 -4 7 -8 49 -8 93 l0 80 -70 38 c-39 21 -70 42 -70 47 0 5
65 48 145 97 79 48 144 90 145 93 0 7 -288 170 -301 170 -6 0 -74 -41 -151
-90 l-141 -91 -142 96 c-78 52 -143 95 -146 94 -2 0 -142 -87 -310 -192z"/>
<path d="M3357 2710 c-199 -25 -381 -120 -527 -277 -168 -179 -244 -375 -242
-628 1 -252 80 -451 251 -628 177 -185 378 -271 631 -271 253 0 442 78 618
257 251 253 333 604 220 944 -73 222 -255 426 -469 528 -140 66 -325 95 -482
75z m275 -109 c162 -56 320 -226 401 -431 77 -196 78 -513 2 -716 -86 -228
-265 -404 -457 -449 -254 -60 -498 75 -643 355 -83 162 -118 362 -96 558 15
145 33 209 91 327 96 197 239 327 408 370 76 19 218 13 294 -14z"/>
<path d="M4380 2416 c0 -3 9 -20 19 -38 52 -87 54 -118 59 -663 4 -538 -3
-664 -39 -760 -10 -27 -19 -51 -19 -53 0 -1 314 -1 698 0 626 3 703 5 755 21
146 43 222 100 257 194 41 109 16 233 -62 312 -57 57 -117 86 -222 108 -47 10
-86 20 -86 23 0 3 24 14 53 24 66 24 148 78 180 119 49 65 61 99 61 177 1 66
-3 82 -30 130 -57 101 -170 170 -309 191 -85 12 -665 12 -665 -1 0 -5 4 -10
10 -10 18 0 61 -88 75 -156 18 -84 21 -639 5 -810 -16 -162 -35 -199 -119
-231 -58 -23 -254 -24 -316 -2 l-40 14 -3 600 c-2 547 3 719 24 793 l6 22
-146 0 c-80 0 -146 -2 -146 -4z m1286 -291 c34 -9 78 -30 97 -46 109 -90 101
-283 -16 -366 -68 -50 -120 -62 -273 -65 l-139 -3 -3 240 c-1 132 0 246 3 254
8 20 247 10 331 -14z m59 -684 c240 -86 263 -296 46 -405 -70 -36 -138 -46
-301 -46 l-150 0 0 234 c0 215 1 235 18 240 9 3 87 3 172 2 128 -3 165 -7 215
-25z"/>
<path d="M6781 2199 c-293 -38 -542 -237 -617 -494 -23 -80 -23 -221 0 -300
44 -148 145 -279 291 -374 139 -91 261 -125 450 -124 189 0 306 33 458 130
134 85 240 221 281 362 20 68 21 236 2 306 -18 70 -67 161 -119 224 -174 208
-450 308 -746 270z m233 -64 c100 -26 166 -65 246 -145 121 -121 180 -263 180
-435 0 -169 -59 -313 -175 -431 -245 -248 -620 -203 -816 99 -67 104 -84 171
-84 337 1 125 4 153 23 204 68 185 220 329 388 370 78 19 167 19 238 1z"/>
<path d="M3690 740 c0 -40 0 -40 -39 -40 -50 0 -81 -35 -81 -91 0 -59 25 -78
100 -76 l60 1 0 123 c0 116 -1 123 -20 123 -17 0 -20 -7 -20 -40z m-1 -82 c18
-48 -2 -107 -36 -108 -36 0 -60 89 -31 118 20 20 58 14 67 -10z"/>
<path d="M4853 760 c-19 -29 1 -33 27 -5 22 23 22 25 4 25 -10 0 -25 -9 -31
-20z"/>
<path d="M5233 764 c-7 -18 11 -39 26 -30 17 11 13 46 -4 46 -9 0 -18 -7 -22
-16z"/>
<path d="M6010 655 c0 -118 1 -125 20 -125 19 0 20 7 20 125 0 118 -1 125 -20
125 -19 0 -20 -7 -20 -125z"/>
<path d="M2629 756 c-41 -23 -59 -60 -59 -116 0 -44 5 -56 29 -81 24 -23 38
-29 73 -29 73 0 118 50 118 129 0 81 -92 136 -161 97z m76 -22 c21 -9 45 -56
45 -92 0 -41 -35 -82 -70 -82 -65 0 -95 105 -45 155 25 26 41 30 70 19z"/>
<path d="M5815 763 l-30 -4 1 -112 2 -112 33 -3 c104 -11 175 52 120 107 -18
18 -19 22 -5 49 8 16 12 37 8 46 -6 14 -66 38 -89 34 -5 -1 -23 -3 -40 -5z
m86 -44 c13 -26 -1 -44 -43 -54 -23 -6 -28 -4 -30 11 0 11 -2 26 -3 34 -2 24
4 30 35 30 20 0 33 -7 41 -21z m0 -89 c41 -23 16 -70 -38 -70 -32 0 -33 1 -33
40 0 36 2 40 26 40 14 0 34 -5 45 -10z"/>
<path d="M6622 736 c-34 -32 -37 -38 -37 -91 0 -51 3 -59 33 -86 55 -50 146
-32 174 35 52 127 -72 231 -170 142z m112 -17 c51 -40 26 -159 -34 -159 -73 0
-105 105 -49 161 25 25 50 24 83 -2z"/>
<path d="M4230 645 l0 -115 70 0 c56 0 70 3 70 15 0 11 -12 15 -50 15 l-50 0
0 100 c0 93 -1 100 -20 100 -19 0 -20 -7 -20 -115z"/>
<path d="M5100 733 c0 -9 -8 -25 -17 -35 -11 -13 -14 -22 -6 -26 5 -4 12 -30
15 -59 6 -62 21 -83 59 -83 35 0 40 27 7 32 -20 3 -23 10 -26 55 -3 46 -1 52
18 55 28 4 30 22 3 26 -17 3 -23 10 -23 28 0 15 -6 24 -15 24 -8 0 -15 -8 -15
-17z"/>
<path d="M4750 715 c-8 -9 -30 -15 -60 -15 -63 0 -89 -26 -73 -73 13 -39 10
-85 -6 -115 -10 -19 -10 -28 4 -48 13 -20 23 -24 66 -24 42 0 55 5 79 29 49
49 14 91 -77 91 -27 0 -34 4 -31 17 2 13 15 18 42 21 52 4 66 17 66 63 0 28 4
39 15 39 8 0 15 7 15 15 0 8 -6 15 -14 15 -7 0 -19 -7 -26 -15z m-36 -41 c19
-18 19 -20 6 -45 -18 -33 -70 -18 -70 21 0 19 19 40 36 40 7 0 20 -7 28 -16z
m22 -158 c32 -24 7 -51 -47 -51 -45 0 -59 15 -45 51 7 18 66 18 92 0z"/>
<path d="M3094 696 c-57 -25 -65 -108 -16 -147 19 -15 38 -19 71 -17 58 4 70
29 12 26 -42 -1 -71 14 -71 38 0 8 10 14 24 14 55 0 86 12 86 34 0 27 -9 40
-37 55 -27 14 -30 14 -69 -3z m70 -32 c9 -24 -2 -34 -40 -34 -26 0 -34 4 -34
18 0 25 9 32 41 32 15 0 29 -7 33 -16z"/>
<path d="M3840 703 c-38 -14 -60 -47 -60 -88 0 -56 27 -85 81 -85 69 0 109 66
83 135 -12 30 -68 51 -104 38z m60 -42 c23 -45 3 -111 -35 -111 -23 0 -45 30
-45 61 0 43 17 69 45 69 14 0 29 -8 35 -19z"/>
<path d="M4448 695 c-52 -29 -64 -92 -27 -139 28 -36 95 -37 128 -2 29 31 31
100 4 127 -25 26 -73 32 -105 14z m73 -31 c29 -35 9 -114 -29 -114 -42 0 -66
64 -42 111 13 23 53 25 71 3z"/>
<path d="M5534 700 c-55 -22 -73 -109 -31 -148 54 -51 147 -12 147 62 0 48 -8
65 -41 81 -31 17 -44 18 -75 5z m66 -39 c22 -43 1 -111 -35 -111 -38 0 -62 82
-34 116 17 20 57 17 69 -5z"/>
<path d="M6365 703 c-69 -17 -85 -115 -26 -160 24 -19 111 -17 111 2 0 11 -11
15 -38 15 -26 0 -45 7 -57 20 -23 25 -12 30 93 39 6 0 12 12 12 24 0 40 -50
70 -95 60z m53 -50 c3 -20 -1 -23 -31 -23 -41 0 -49 7 -36 32 15 28 63 21 67
-9z"/>
<path d="M7073 702 c-32 -5 -63 -49 -63 -89 0 -53 36 -83 100 -83 38 0 50 4
50 15 0 11 -12 15 -45 15 -34 0 -47 5 -55 19 -15 28 -13 31 19 31 16 0 43 3
60 6 29 6 32 10 26 33 -12 46 -38 61 -92 53z m55 -49 c3 -21 -1 -23 -37 -23
-27 0 -41 4 -41 13 0 41 72 50 78 10z"/>
<path d="M2843 574 c1 -113 3 -124 19 -124 14 0 18 8 18 40 0 39 1 40 36 40
47 0 69 13 84 49 15 38 5 97 -19 110 -10 6 -45 10 -78 9 l-60 -1 0 -123z m111
90 c20 -20 20 -63 0 -92 -17 -24 -43 -29 -62 -10 -16 16 -16 105 1 111 24 10
46 7 61 -9z"/>
<path d="M3244 676 c3 -12 6 -49 6 -83 0 -49 3 -63 15 -63 11 0 15 12 15 51 0
63 13 89 45 89 14 0 25 6 25 14 0 9 -15 13 -56 13 -52 0 -55 -1 -50 -21z"/>
<path d="M3395 690 c-4 -6 9 -10 33 -10 39 0 69 -20 58 -38 -3 -6 -21 -13 -40
-16 -48 -9 -72 -39 -58 -71 10 -22 16 -24 75 -23 l64 1 -5 71 c-2 39 -9 77
-14 84 -12 14 -104 16 -113 2z m95 -105 c0 -18 -7 -26 -24 -31 -30 -7 -46 1
-46 25 0 24 9 31 42 31 23 0 28 -4 28 -25z"/>
<path d="M3994 676 c3 -11 6 -49 6 -83 0 -49 3 -63 15 -63 11 0 15 12 15 51 0
63 13 89 45 89 15 0 25 6 25 14 0 11 -14 14 -56 14 -52 -1 -55 -2 -50 -22z"/>
<path d="M4832 618 c3 -70 6 -83 21 -86 15 -3 17 6 17 82 0 80 -1 86 -20 86
-20 0 -21 -5 -18 -82z"/>
<path d="M4932 688 c-25 -25 -14 -57 28 -78 22 -11 40 -27 40 -35 0 -15 -37
-29 -61 -23 -8 2 -16 -1 -17 -7 -3 -12 42 -19 74 -11 27 7 47 38 38 61 -4 9
-24 25 -46 36 -47 24 -45 43 5 47 20 2 37 7 37 13 0 13 -84 11 -98 -3z"/>
<path d="M5230 614 c0 -72 2 -85 16 -82 8 2 15 6 15 11 -1 4 -1 41 -1 82 0 60
-3 75 -15 75 -12 0 -15 -16 -15 -86z"/>
<path d="M5335 675 c-56 -55 -16 -145 65 -145 29 0 40 4 40 15 0 10 -11 15
-35 15 -38 0 -55 20 -55 64 0 33 25 56 61 56 16 0 29 5 29 10 0 6 -18 10 -40
10 -30 0 -47 -7 -65 -25z"/>
<path d="M6099 693 c-4 -40 5 -140 13 -150 6 -8 33 -12 74 -11 l64 2 0 83 c0
76 -2 83 -20 83 -18 0 -20 -7 -20 -70 l0 -70 -30 0 c-37 0 -53 32 -48 95 2 31
-1 41 -15 43 -9 2 -17 0 -18 -5z"/>
<path d="M6882 693 c-24 -9 -44 -64 -37 -99 8 -43 42 -66 91 -62 49 4 58 28
11 28 -43 0 -67 22 -67 59 0 34 28 61 63 61 15 0 27 5 27 10 0 10 -65 13 -88
3z"/>
<path d="M7215 690 c-4 -6 9 -10 33 -10 39 0 69 -20 58 -38 -3 -6 -22 -13 -41
-16 -57 -11 -84 -76 -37 -90 10 -3 40 -4 68 -3 l52 1 -2 74 c-2 51 -7 76 -17
83 -19 12 -106 11 -114 -1z m95 -105 c0 -18 -7 -26 -24 -31 -30 -7 -46 1 -46
25 0 24 9 31 42 31 23 0 28 -4 28 -25z"/>
<path d="M7396 616 c3 -63 7 -82 19 -84 12 -3 15 8 15 62 0 55 3 67 20 76 48
25 75 -16 68 -100 -2 -26 1 -35 15 -38 15 -3 17 5 17 71 0 48 -5 78 -13 85 -7
6 -42 10 -78 10 l-65 -1 2 -81z"/>
</g>
</svg>
