<?xml version="1.0" standalone="no"?>
<!DOCTYPE svg PUBLIC "-//W3C//DTD SVG 20010904//EN"
 "http://www.w3.org/TR/2001/REC-SVG-20010904/DTD/svg10.dtd">
<svg version="1.0" xmlns="http://www.w3.org/2000/svg"
 width="290.000000pt" height="288.000000pt" viewBox="0 0 290.000000 288.000000"
 preserveAspectRatio="xMidYMid meet">
<metadata>
Created by potrace 1.16, written by Peter Selinger 2001-2019
</metadata>
<g transform="translate(0.000000,288.000000) scale(0.100000,-0.100000)"
fill="#000000" stroke="none">
<path d="M1352 2288 c2 -36 0 -43 -14 -40 -21 3 -23 -9 -6 -26 10 -10 10 -15
-1 -21 -8 -5 -10 -14 -6 -21 6 -9 4 -11 -5 -5 -10 6 -11 2 -6 -19 4 -15 3 -25
-2 -22 -4 2 -14 1 -22 -5 -8 -5 -10 -9 -4 -9 7 0 14 -8 16 -18 4 -15 -1 -17
-33 -14 -31 3 -38 0 -44 -17 -7 -24 2 -61 16 -61 5 0 8 10 7 23 -2 12 2 23 7
24 6 1 9 -12 7 -28 -3 -34 14 -72 29 -64 5 4 9 1 9 -4 0 -14 -17 -14 -25 -1
-9 14 -45 12 -46 -2 0 -7 -2 -25 -4 -40 -2 -16 1 -28 6 -28 5 0 9 11 9 24 0
28 17 43 31 29 6 -6 4 -15 -6 -23 -8 -7 -15 -25 -15 -40 0 -30 -26 -38 -35
-10 -3 10 -15 26 -26 36 -20 18 -20 17 -17 -19 1 -22 7 -37 15 -37 7 0 13 -4
13 -10 0 -5 -7 -10 -15 -10 -16 0 -31 -61 -20 -82 3 -7 0 -5 -8 5 -8 9 -21 17
-29 17 -18 0 -19 -30 -2 -47 7 -7 13 -38 13 -73 0 -53 -2 -60 -20 -60 -11 0
-18 4 -15 8 2 4 1 14 -4 22 -7 11 -11 11 -24 1 -9 -8 -16 -20 -16 -28 0 -10
-9 -13 -27 -11 -22 2 -28 -2 -34 -22 -4 -14 -7 -19 -8 -11 -1 8 -9 20 -18 27
-17 12 -16 13 7 23 l25 10 -27 0 c-23 1 -26 5 -26 39 0 20 -2 50 -5 65 -4 23
-2 27 10 23 12 -5 13 -3 5 6 -5 7 -10 24 -11 38 0 14 -2 36 -4 50 -2 14 0 38
4 54 5 18 5 34 -2 42 -5 6 -8 24 -5 39 6 35 -3 62 -15 43 -6 -9 -9 -7 -9 10 0
16 6 22 22 22 l21 0 -21 19 c-22 18 -31 48 -12 36 6 -4 10 6 10 24 0 16 5 33
10 36 14 9 12 21 -6 39 -8 9 -11 16 -6 16 14 0 10 59 -5 64 -19 8 -24 -23 -29
-168 -4 -121 -3 -138 11 -132 8 3 15 1 15 -3 0 -5 -6 -11 -13 -14 -11 -4 -14
-52 -16 -231 l-2 -226 231 0 230 0 0 368 c0 277 3 371 12 380 10 10 10 17 0
32 -6 10 -9 26 -6 35 4 8 1 15 -6 15 -8 0 -11 -14 -8 -42z"/>
<path d="M1500 2281 c0 -5 7 -11 15 -14 11 -5 13 -21 8 -82 l-5 -75 231 0
c128 0 231 4 231 9 0 13 -54 23 -168 30 -14 0 -26 10 -31 24 -5 13 -16 25 -25
26 -9 1 -25 2 -35 3 -11 1 -17 6 -15 10 3 4 1 8 -5 8 -5 0 -11 -4 -13 -9 -3
-9 -53 -16 -85 -12 -15 1 -18 31 -3 31 6 0 10 -4 10 -10 0 -5 5 -10 11 -10 8
0 9 4 0 13 -6 8 -8 17 -4 20 3 4 -2 7 -13 7 -10 0 -30 6 -44 13 -41 21 -60 27
-60 18z"/>
<path d="M1529 1759 c-1 -107 -2 -208 -4 -226 l-3 -32 364 -1 365 -1 -21 21
c-11 11 -29 20 -40 20 -11 0 -20 6 -20 14 0 19 -39 27 -75 17 -20 -6 -23 -10
-11 -10 11 -1 16 -4 12 -8 -12 -12 -40 -12 -48 0 -6 9 -8 9 -8 0 0 -7 -8 -13
-19 -13 -10 0 -18 6 -17 13 1 14 -5 17 -34 17 -13 0 -20 -7 -20 -20 0 -15 -5
-19 -22 -16 -13 3 -29 5 -36 5 -6 1 -11 6 -10 12 2 6 -3 14 -9 16 -8 3 -13 -4
-13 -15 0 -17 -6 -20 -37 -17 -21 2 -44 3 -50 4 -7 1 -13 7 -13 15 0 12 -20
26 -37 26 -3 0 -2 -12 1 -26 5 -19 3 -25 -6 -22 -7 3 -14 15 -16 27 -2 14 -9
21 -17 17 -8 -3 -23 6 -34 20 -16 20 -25 23 -47 18 -19 -5 -25 -4 -20 5 4 6
17 11 28 11 20 0 20 1 4 18 -15 18 -15 20 4 37 24 22 25 31 5 39 -8 3 -14 0
-12 -6 1 -6 -4 -13 -12 -16 -8 -3 -11 0 -7 7 4 6 0 18 -8 27 -9 8 -16 25 -16
37 0 16 -3 18 -9 9 -6 -10 -10 -4 -15 18 -9 47 -7 108 3 112 5 2 3 12 -5 22
-12 17 -14 -3 -15 -175z"/>
<path d="M293 1802 c-116 -108 -151 -189 -160 -366 -5 -92 -3 -117 6 -112 20
13 63 -44 57 -76 -3 -16 -1 -28 4 -28 6 0 10 -5 10 -11 0 -5 -4 -8 -9 -5 -5 4
-7 -3 -4 -14 3 -11 0 -20 -6 -20 -8 0 -8 -6 1 -19 7 -11 16 -18 20 -15 4 3 5
-1 2 -9 -6 -17 95 -123 129 -136 49 -19 42 -3 -40 88 -30 33 -38 51 -34 75 1
5 -6 6 -16 4 -10 -3 -25 2 -32 10 -12 12 -11 13 9 7 17 -5 21 -4 17 6 -2 8
-10 13 -16 11 -7 -1 -10 1 -7 6 3 5 0 26 -6 48 -6 21 -11 45 -9 52 1 7 -4 19
-12 26 -23 24 -2 267 28 312 9 14 14 28 11 33 -3 4 27 40 68 78 65 63 72 73
62 92 -11 20 -14 18 -73 -37z"/>
<path d="M2286 1490 c28 -11 39 -74 19 -113 -8 -16 -13 -32 -11 -36 2 -3 -29
-6 -70 -6 l-74 0 0 -232 c0 -190 3 -233 14 -233 8 0 13 11 14 28 1 39 20 144
31 174 6 17 6 29 0 35 -7 7 -5 15 5 25 13 13 12 20 -1 62 -15 46 -11 74 7 46
8 -12 10 -12 10 -1 0 7 6 11 15 7 8 -3 21 4 30 17 14 20 15 19 15 -28 0 -28 5
-57 10 -65 7 -11 10 -7 10 17 0 25 4 31 15 27 8 -4 15 -1 15 4 0 6 -7 17 -15
26 -17 17 -20 36 -5 36 6 0 10 -4 10 -10 0 -5 7 -10 15 -10 8 0 15 5 15 10 0
6 -7 13 -15 16 -19 8 -20 34 -1 34 21 0 39 -27 33 -50 -4 -16 0 -20 19 -20 13
0 24 -5 24 -11 0 -5 5 -7 10 -4 6 3 10 1 10 -5 0 -6 -14 -8 -39 -4 -25 4 -41
2 -46 -6 -10 -17 2 -25 19 -11 19 16 29 0 20 -34 -4 -17 -2 -25 7 -26 27 -2
54 3 66 13 9 7 17 5 28 -6 9 -9 17 -16 18 -16 1 0 3 17 5 37 1 21 8 41 16 45
20 11 18 65 -2 65 -27 0 -43 -18 -36 -40 6 -20 6 -20 -10 -4 -14 14 -15 20 -4
39 7 13 11 28 10 35 -3 15 15 26 23 13 8 -13 35 -13 35 0 0 6 -5 10 -10 10 -6
0 -22 12 -35 26 l-24 25 -6 -44 c-6 -37 -10 -44 -26 -40 -10 3 -16 10 -12 16
3 5 2 7 -4 4 -6 -4 -18 0 -29 7 -10 8 -24 12 -31 9 -15 -6 -18 23 -3 32 6 3
10 14 10 25 0 10 7 20 15 24 29 11 16 34 -24 41 -22 3 -47 13 -58 20 -10 8
-25 14 -33 14 -9 0 -6 -4 6 -9z"/>
<path d="M425 1380 c-11 -5 -14 -9 -7 -9 17 -1 15 -41 -3 -41 -8 0 -15 6 -15
13 0 9 -11 12 -35 9 -29 -3 -35 -1 -35 14 0 14 -3 15 -12 6 -16 -16 -41 -16
-32 1 5 9 3 9 -7 -1 -12 -11 -12 -14 1 -22 12 -8 12 -10 -2 -15 -10 -4 -22 -4
-28 0 -5 3 -10 -2 -10 -11 0 -10 3 -14 7 -11 3 4 13 1 21 -6 13 -9 14 -9 8 1
-4 7 -1 12 9 12 10 0 13 -5 9 -12 -18 -29 50 -42 84 -15 16 13 43 -9 35 -29
-4 -10 -13 -14 -28 -10 -29 7 -39 -4 -17 -20 16 -12 15 -13 -5 -14 -12 0 -25
-4 -28 -10 -3 -5 1 -10 9 -10 9 0 16 -9 16 -20 0 -16 7 -20 35 -20 19 0 35 -4
35 -10 0 -5 7 -10 15 -10 12 0 15 9 12 35 -2 19 -7 38 -10 42 -4 3 5 19 20 33
22 23 32 26 55 19 15 -4 28 -5 28 -1 0 4 7 -4 16 -16 17 -24 64 -31 64 -8 0 8
-7 17 -16 20 -22 9 -24 8 -24 -11 0 -24 -15 -5 -16 20 -3 43 -4 47 -19 47 -8
0 -15 6 -15 14 0 11 7 13 30 6 22 -6 30 -5 30 3 0 16 -36 47 -45 39 -9 -10
-75 -10 -75 0 0 10 -29 9 -55 -2z"/>
<path d="M1273 1306 c-17 -18 -20 -26 -10 -36 9 -10 9 -14 0 -17 -7 -3 -13 -9
-13 -15 0 -13 -21 -32 -44 -41 -15 -6 -17 -4 -13 13 6 24 -1 25 -39 5 -28 -14
-28 -15 -5 -15 18 0 21 -3 12 -13 -6 -8 -8 -17 -4 -20 3 -4 -1 -7 -10 -7 -8 0
-19 9 -22 20 -12 37 -23 11 -14 -31 10 -41 5 -79 -10 -79 -4 0 -6 -13 -5 -30
2 -28 0 -30 -35 -30 -42 0 -52 -6 -44 -26 7 -19 47 -18 63 1 19 23 42 19 38
-6 -4 -30 -71 -38 -101 -12 -11 10 -17 13 -14 7 7 -13 -13 -24 -44 -24 -28 0
-23 -17 6 -22 14 -3 30 1 36 8 11 13 33 9 25 -4 -2 -4 22 -8 53 -9 31 -2 57
-7 59 -13 2 -5 8 -10 13 -10 4 0 6 6 3 14 -4 10 5 13 35 13 22 0 47 5 54 12
17 14 27 5 27 -25 0 -15 -7 -24 -22 -27 -13 -2 0 -5 29 -6 28 0 58 -4 67 -7
14 -5 16 18 16 225 l0 231 -32 0 c-21 0 -41 -9 -55 -24z"/>
<path d="M1529 1322 c0 -4 -2 -164 -3 -357 -2 -192 -6 -360 -10 -372 -9 -27
-43 -38 -94 -29 -48 7 -62 28 -62 93 l0 53 -231 0 -231 0 5 -58 c9 -93 22
-150 29 -127 4 11 6 37 5 58 -2 30 2 41 18 49 11 6 23 16 27 22 5 8 10 8 19
-1 6 -6 18 -9 25 -6 8 3 20 0 28 -6 9 -7 38 -10 80 -7 41 3 64 1 61 -5 -4 -5
-15 -9 -25 -9 -13 0 -17 -5 -14 -15 9 -21 31 -19 44 5 6 11 20 20 31 20 19 0
19 -1 5 -16 -9 -8 -14 -20 -11 -25 6 -9 -16 -13 -45 -9 -12 2 -12 -2 3 -17 23
-26 22 -42 -3 -40 -12 1 -18 7 -16 14 3 7 2 12 -2 12 -24 -4 -41 3 -45 19 -4
16 -5 16 -6 -1 0 -10 5 -20 12 -23 7 -2 12 -17 11 -32 -2 -39 -2 -39 -26 -46
-19 -5 -21 -8 -8 -16 11 -7 19 -5 28 8 12 16 14 16 28 -3 8 -11 12 -25 9 -33
-5 -13 6 -9 32 11 10 7 8 13 -6 26 -17 15 -17 17 6 39 l25 23 -3 -38 c-1 -21
-12 -48 -23 -60 l-19 -23 21 0 c14 0 22 -6 22 -17 0 -13 2 -15 8 -5 9 14 30
-4 51 -45 15 -29 14 -34 -4 -27 -8 4 -15 12 -15 20 0 8 -10 14 -25 14 -15 0
-25 6 -25 14 0 19 -37 9 -44 -11 -5 -12 -1 -14 18 -9 16 4 26 1 30 -9 3 -8 13
-15 23 -15 10 0 35 -14 56 -31 20 -17 37 -26 37 -21 0 21 33 6 47 -22 l16 -31
9 28 c9 26 28 38 28 17 0 -5 7 -10 15 -10 8 0 15 5 15 11 0 6 12 10 28 9 54
-4 62 -1 59 22 -1 15 3 23 14 23 9 0 23 6 32 13 9 8 26 10 40 7 19 -5 27 -2
31 13 5 14 15 18 39 17 43 -3 91 17 76 32 -8 8 -7 13 1 18 7 4 16 1 21 -6 4
-7 10 -11 12 -9 7 10 37 78 37 87 0 4 10 24 22 43 12 19 21 45 19 57 -2 18 1
21 15 16 12 -4 15 -3 10 6 -4 6 -4 26 0 44 l7 32 12 -28 c26 -63 33 -5 40 341
l8 342 -97 0 c-62 0 -95 -4 -91 -10 4 -6 -6 -10 -22 -10 -42 0 -74 -11 -70
-24 2 -6 18 -10 36 -8 21 2 33 -2 37 -12 8 -21 33 -20 63 0 28 20 52 4 36 -24
-13 -22 -7 -82 7 -82 10 0 47 -37 49 -49 5 -38 2 -241 -4 -241 -4 0 -7 -6 -6
-12 3 -26 -1 -45 -14 -62 -12 -17 -14 -17 -20 -3 -3 9 0 23 8 31 13 12 12 15
-2 20 -21 9 -25 3 -25 -37 l0 -34 -44 5 c-33 3 -44 1 -45 -9 -1 -18 -17 21
-18 44 -1 11 6 17 20 17 11 0 18 4 15 9 -3 5 2 12 12 16 16 6 16 7 -2 21 -25
18 -37 18 -30 1 3 -8 -7 -26 -22 -41 -21 -20 -25 -29 -16 -38 23 -23 18 -26
-48 -32 -31 -2 -35 -6 -38 -33 -3 -26 -6 -29 -28 -25 -13 2 -24 9 -24 14 0 6
7 7 16 4 9 -3 14 -1 12 5 -2 6 -7 10 -12 9 -9 -2 -26 19 -26 33 0 4 6 7 14 7
9 0 12 8 8 25 -3 20 -1 24 12 19 13 -5 16 0 16 25 0 21 -5 31 -15 31 -8 0 -15
-9 -15 -21 0 -11 -4 -17 -10 -14 -5 3 -10 19 -10 36 0 16 5 29 10 29 16 0 11
25 -10 52 -10 14 -16 28 -13 32 10 10 12 56 2 56 -17 0 -9 17 13 27 l23 10
-23 12 c-18 10 -22 20 -22 62 0 35 -4 51 -15 55 -19 8 -20 40 -1 47 25 10 25
44 0 56 -13 6 -24 7 -25 3z"/>
<path d="M500 1234 c0 -8 -7 -14 -15 -14 -18 0 -20 -17 -2 -23 9 -3 9 -7 -1
-19 -11 -14 -9 -17 17 -23 17 -4 34 -11 37 -16 10 -17 48 -27 62 -17 6 6 12 7
13 2 1 -5 2 -16 3 -24 2 -8 3 -25 4 -37 3 -32 22 -29 22 3 0 24 1 24 22 10 12
-9 26 -16 30 -16 12 0 10 38 -2 45 -13 8 -13 45 -1 45 9 0 23 -16 27 -30 15
-51 16 -51 34 -35 10 9 21 15 26 14 29 -5 37 2 18 15 -10 8 -29 12 -41 9 -17
-4 -23 -1 -23 11 0 9 7 19 15 22 10 4 14 19 13 45 -1 25 -5 36 -11 30 -5 -5
-7 -17 -5 -27 5 -24 -32 -60 -43 -43 -5 8 -11 5 -20 -9 -10 -16 -16 -18 -26
-10 -7 6 -13 17 -13 24 0 10 -9 12 -32 7 -25 -5 -30 -3 -23 8 6 11 5 12 -6 2
-7 -7 -23 -13 -36 -13 -18 0 -23 5 -22 23 1 16 2 18 6 5 5 -21 24 -23 41 -6
17 17 15 28 -7 28 -11 0 -21 5 -23 12 -6 17 -38 19 -38 2z"/>
</g>
</svg>
